<mxfile host="app.diagrams.net" agent="Mozilla/5.0 (Macintosh; Intel Mac OS X 10_15_7) AppleWebKit/537.36 (KHTML, like Gecko) Chrome/114.0.0.0 Safari/537.36" version="24.8.3">
  <diagram name="Страница — 1" id="jw53hQ-DvtkmouwXfoyK">
    <mxGraphModel dx="740" dy="1707" grid="1" gridSize="10" guides="1" tooltips="1" connect="1" arrows="1" fold="1" page="1" pageScale="1" pageWidth="827" pageHeight="1169" math="0" shadow="0">
      <root>
        <mxCell id="0" />
        <mxCell id="1" parent="0" />
        <mxCell id="gTQbOeCpmc0xGtNuBgHF-1" value="BPMN -&amp;nbsp;Business Process Management Notation (нотация)" style="text;html=1;align=center;verticalAlign=middle;whiteSpace=wrap;rounded=0;" vertex="1" parent="1">
          <mxGeometry x="80" y="40" width="360" height="40" as="geometry" />
        </mxCell>
        <mxCell id="gTQbOeCpmc0xGtNuBgHF-2" value="" style="rounded=0;whiteSpace=wrap;html=1;" vertex="1" parent="1">
          <mxGeometry x="80" y="100" width="1030" height="360" as="geometry" />
        </mxCell>
        <mxCell id="gTQbOeCpmc0xGtNuBgHF-3" value="" style="rounded=0;whiteSpace=wrap;html=1;" vertex="1" parent="1">
          <mxGeometry x="80" y="100" width="40" height="120" as="geometry" />
        </mxCell>
        <mxCell id="gTQbOeCpmc0xGtNuBgHF-4" value="" style="rounded=0;whiteSpace=wrap;html=1;" vertex="1" parent="1">
          <mxGeometry x="80" y="220" width="40" height="120" as="geometry" />
        </mxCell>
        <mxCell id="gTQbOeCpmc0xGtNuBgHF-5" value="" style="rounded=0;whiteSpace=wrap;html=1;" vertex="1" parent="1">
          <mxGeometry x="80" y="340" width="40" height="120" as="geometry" />
        </mxCell>
        <mxCell id="gTQbOeCpmc0xGtNuBgHF-6" value="" style="rounded=0;whiteSpace=wrap;html=1;" vertex="1" parent="1">
          <mxGeometry x="120" y="100" width="990" height="120" as="geometry" />
        </mxCell>
        <mxCell id="gTQbOeCpmc0xGtNuBgHF-8" value="" style="rounded=0;whiteSpace=wrap;html=1;" vertex="1" parent="1">
          <mxGeometry x="120" y="340" width="990" height="120" as="geometry" />
        </mxCell>
        <mxCell id="gTQbOeCpmc0xGtNuBgHF-17" value="Оператор" style="text;html=1;align=center;verticalAlign=middle;whiteSpace=wrap;rounded=0;rotation=270;" vertex="1" parent="1">
          <mxGeometry x="100" y="385" width="60" height="30" as="geometry" />
        </mxCell>
        <mxCell id="gTQbOeCpmc0xGtNuBgHF-18" value="-" style="text;html=1;align=center;verticalAlign=middle;whiteSpace=wrap;rounded=0;rotation=270;" vertex="1" parent="1">
          <mxGeometry x="70" y="145" width="60" height="30" as="geometry" />
        </mxCell>
        <mxCell id="gTQbOeCpmc0xGtNuBgHF-19" value="-" style="text;html=1;align=center;verticalAlign=middle;whiteSpace=wrap;rounded=0;rotation=270;" vertex="1" parent="1">
          <mxGeometry x="70" y="385" width="60" height="30" as="geometry" />
        </mxCell>
        <mxCell id="gTQbOeCpmc0xGtNuBgHF-20" value="&lt;span style=&quot;font-size: 10px;&quot;&gt;нажали &quot;задать вопрос&quot;&lt;/span&gt;" style="text;html=1;align=center;verticalAlign=middle;whiteSpace=wrap;rounded=0;" vertex="1" parent="1">
          <mxGeometry x="450" y="40" width="80" height="30" as="geometry" />
        </mxCell>
        <mxCell id="gTQbOeCpmc0xGtNuBgHF-30" value="- git away" style="text;html=1;align=center;verticalAlign=middle;whiteSpace=wrap;rounded=0;" vertex="1" parent="1">
          <mxGeometry x="500" y="-5" width="60" height="30" as="geometry" />
        </mxCell>
        <mxCell id="gTQbOeCpmc0xGtNuBgHF-32" value="" style="points=[[0.145,0.145,0],[0.5,0,0],[0.855,0.145,0],[1,0.5,0],[0.855,0.855,0],[0.5,1,0],[0.145,0.855,0],[0,0.5,0]];shape=mxgraph.bpmn.event;html=1;verticalLabelPosition=bottom;labelBackgroundColor=#ffffff;verticalAlign=top;align=center;perimeter=ellipsePerimeter;outlineConnect=0;aspect=fixed;outline=standard;symbol=message;" vertex="1" parent="1">
          <mxGeometry x="615" y="20" width="35" height="35" as="geometry" />
        </mxCell>
        <mxCell id="gTQbOeCpmc0xGtNuBgHF-33" value="" style="shape=datastore;html=1;labelPosition=center;verticalLabelPosition=bottom;align=center;verticalAlign=top;" vertex="1" parent="1">
          <mxGeometry x="120" width="40" height="40" as="geometry" />
        </mxCell>
        <mxCell id="gTQbOeCpmc0xGtNuBgHF-34" value="" style="points=[[0.25,0.25,0],[0.5,0,0],[0.75,0.25,0],[1,0.5,0],[0.75,0.75,0],[0.5,1,0],[0.25,0.75,0],[0,0.5,0]];shape=mxgraph.bpmn.gateway2;html=1;verticalLabelPosition=bottom;labelBackgroundColor=#ffffff;verticalAlign=top;align=center;perimeter=rhombusPerimeter;outlineConnect=0;outline=none;symbol=none;gwType=exclusive;" vertex="1" parent="1">
          <mxGeometry x="263" y="145" width="40" height="35" as="geometry" />
        </mxCell>
        <mxCell id="gTQbOeCpmc0xGtNuBgHF-35" value="" style="points=[[0.25,0,0],[0.5,0,0],[0.75,0,0],[1,0.25,0],[1,0.5,0],[1,0.75,0],[0.75,1,0],[0.5,1,0],[0.25,1,0],[0,0.75,0],[0,0.5,0],[0,0.25,0]];shape=mxgraph.bpmn.task;whiteSpace=wrap;rectStyle=rounded;size=10;html=1;container=1;expand=0;collapsible=0;taskMarker=script;" vertex="1" parent="1">
          <mxGeometry x="300" y="-102.5" width="66" height="50" as="geometry" />
        </mxCell>
        <mxCell id="gTQbOeCpmc0xGtNuBgHF-36" value="" style="points=[[0.25,0,0],[0.5,0,0],[0.75,0,0],[1,0.25,0],[1,0.5,0],[1,0.75,0],[0.75,1,0],[0.5,1,0],[0.25,1,0],[0,0.75,0],[0,0.5,0],[0,0.25,0]];shape=mxgraph.bpmn.task;whiteSpace=wrap;rectStyle=rounded;size=10;html=1;container=1;expand=0;collapsible=0;taskMarker=user;" vertex="1" parent="1">
          <mxGeometry x="100" y="-100" width="70" height="47.5" as="geometry" />
        </mxCell>
        <mxCell id="gTQbOeCpmc0xGtNuBgHF-37" value="Ситема мп" style="text;html=1;align=center;verticalAlign=middle;whiteSpace=wrap;rounded=0;rotation=270;" vertex="1" parent="1">
          <mxGeometry x="90" y="145" width="80" height="30" as="geometry" />
        </mxCell>
        <mxCell id="gTQbOeCpmc0xGtNuBgHF-38" value="" style="ellipse;whiteSpace=wrap;html=1;aspect=fixed;strokeColor=#009900;" vertex="1" parent="1">
          <mxGeometry x="140" y="262.5" width="35" height="35" as="geometry" />
        </mxCell>
        <mxCell id="gTQbOeCpmc0xGtNuBgHF-39" value="Пользователь" style="text;html=1;align=center;verticalAlign=middle;whiteSpace=wrap;rounded=0;rotation=270;" vertex="1" parent="1">
          <mxGeometry x="100" y="265" width="60" height="30" as="geometry" />
        </mxCell>
        <mxCell id="gTQbOeCpmc0xGtNuBgHF-40" value="" style="endArrow=classic;html=1;rounded=0;exitX=1;exitY=0.5;exitDx=0;exitDy=0;entryX=0.5;entryY=1;entryDx=0;entryDy=0;entryPerimeter=0;exitPerimeter=0;" edge="1" parent="1" source="gTQbOeCpmc0xGtNuBgHF-202" target="gTQbOeCpmc0xGtNuBgHF-34">
          <mxGeometry width="50" height="50" relative="1" as="geometry">
            <mxPoint x="310" y="310" as="sourcePoint" />
            <mxPoint x="280" y="250" as="targetPoint" />
            <Array as="points">
              <mxPoint x="283" y="280" />
            </Array>
          </mxGeometry>
        </mxCell>
        <mxCell id="gTQbOeCpmc0xGtNuBgHF-41" value="" style="points=[[0.25,0,0],[0.5,0,0],[0.75,0,0],[1,0.25,0],[1,0.5,0],[1,0.75,0],[0.75,1,0],[0.5,1,0],[0.25,1,0],[0,0.75,0],[0,0.5,0],[0,0.25,0]];shape=mxgraph.bpmn.task;whiteSpace=wrap;rectStyle=rounded;size=10;html=1;container=1;expand=0;collapsible=0;taskMarker=receive;" vertex="1" parent="1">
          <mxGeometry x="200" y="-101.25" width="66" height="50" as="geometry" />
        </mxCell>
        <mxCell id="gTQbOeCpmc0xGtNuBgHF-43" value="&lt;div&gt;1.Всплывает окно поверх главного экрана , всплывает история обращений и возможность задать новый вопрос&lt;/div&gt;&lt;div&gt;2.Пользователь нажимает &quot;новый вопрос&quot;&amp;nbsp;&lt;/div&gt;&lt;div&gt;3.На всплывающем окне появляется поле для ввода темы и поля с описанием вопроса&lt;/div&gt;&lt;div&gt;4.Пользователь вводит свой вопрос&lt;/div&gt;&lt;div style=&quot;text-align: left;&quot;&gt;&lt;span style=&quot;font-size: 11px; background-color: initial;&quot;&gt;&amp;nbsp; &amp;nbsp;5.&lt;/span&gt;&lt;span style=&quot;background-color: initial;&quot;&gt;Система&amp;nbsp;&lt;/span&gt;&lt;font style=&quot;background-color: initial;&quot;&gt;отправляет&lt;/font&gt;&lt;span style=&quot;background-color: initial;&quot;&gt;&amp;nbsp;&lt;/span&gt;&lt;/div&gt;&lt;div style=&quot;text-align: left;&quot;&gt;&lt;span style=&quot;background-color: initial;&quot;&gt;&amp;nbsp; &amp;nbsp; &amp;nbsp; &amp;nbsp; &amp;nbsp; &amp;nbsp; &amp;nbsp; &amp;nbsp;пользователю&lt;/span&gt;&lt;/div&gt;&lt;div&gt;&lt;span style=&quot;background-color: initial;&quot;&gt;&amp;nbsp;подтверждение отправки сообщения и после ответ оператора&lt;/span&gt;&lt;/div&gt;" style="text;html=1;align=center;verticalAlign=middle;whiteSpace=wrap;rounded=0;" vertex="1" parent="1">
          <mxGeometry x="100" y="490" width="560" height="240" as="geometry" />
        </mxCell>
        <mxCell id="gTQbOeCpmc0xGtNuBgHF-49" value="" style="points=[[0.25,0.25,0],[0.5,0,0],[0.75,0.25,0],[1,0.5,0],[0.75,0.75,0],[0.5,1,0],[0.25,0.75,0],[0,0.5,0]];shape=mxgraph.bpmn.gateway2;html=1;verticalLabelPosition=bottom;labelBackgroundColor=#ffffff;verticalAlign=top;align=center;perimeter=rhombusPerimeter;outlineConnect=0;outline=none;symbol=none;gwType=exclusive;" vertex="1" parent="1">
          <mxGeometry x="680" y="40" width="40" height="35" as="geometry" />
        </mxCell>
        <mxCell id="gTQbOeCpmc0xGtNuBgHF-52" value="" style="endArrow=classic;html=1;rounded=0;exitX=1;exitY=0.5;exitDx=0;exitDy=0;exitPerimeter=0;entryX=0;entryY=0.5;entryDx=0;entryDy=0;entryPerimeter=0;" edge="1" parent="1" source="gTQbOeCpmc0xGtNuBgHF-34" target="gTQbOeCpmc0xGtNuBgHF-199">
          <mxGeometry width="50" height="50" relative="1" as="geometry">
            <mxPoint x="250" y="210" as="sourcePoint" />
            <mxPoint x="348" y="270" as="targetPoint" />
            <Array as="points">
              <mxPoint x="320" y="163" />
              <mxPoint x="320" y="270" />
            </Array>
          </mxGeometry>
        </mxCell>
        <mxCell id="gTQbOeCpmc0xGtNuBgHF-55" value="&lt;div&gt;&lt;font style=&quot;font-size: 8px;&quot;&gt;&lt;br&gt;&lt;/font&gt;&lt;/div&gt;&lt;div&gt;&lt;font style=&quot;font-size: 8px;&quot;&gt;кнопка &lt;br&gt;&quot;Вопрос 1/2/3&quot;&lt;br&gt;&lt;/font&gt;&lt;/div&gt;" style="points=[[0.25,0,0],[0.5,0,0],[0.75,0,0],[1,0.25,0],[1,0.5,0],[1,0.75,0],[0.75,1,0],[0.5,1,0],[0.25,1,0],[0,0.75,0],[0,0.5,0],[0,0.25,0]];shape=mxgraph.bpmn.task;whiteSpace=wrap;rectStyle=rounded;size=10;html=1;container=1;expand=0;collapsible=0;taskMarker=script;" vertex="1" parent="1">
          <mxGeometry x="360" y="103" width="69" height="50" as="geometry" />
        </mxCell>
        <mxCell id="gTQbOeCpmc0xGtNuBgHF-59" value="" style="shape=datastore;html=1;labelPosition=center;verticalLabelPosition=bottom;align=center;verticalAlign=top;" vertex="1" parent="1">
          <mxGeometry x="470" y="160" width="40" height="50" as="geometry" />
        </mxCell>
        <mxCell id="gTQbOeCpmc0xGtNuBgHF-62" value="&lt;font style=&quot;font-size: 6px;&quot;&gt;инд. пользователя , инд.вопроса ,&lt;/font&gt;&lt;div&gt;&lt;font style=&quot;font-size: 6px;&quot;&gt;сам вопрос&lt;/font&gt;&lt;/div&gt;" style="text;html=1;align=center;verticalAlign=middle;whiteSpace=wrap;rounded=0;" vertex="1" parent="1">
          <mxGeometry x="464" y="340" width="82" height="30" as="geometry" />
        </mxCell>
        <mxCell id="gTQbOeCpmc0xGtNuBgHF-64" value="&lt;div&gt;&lt;font style=&quot;font-size: 8px;&quot;&gt;&lt;br&gt;&lt;/font&gt;&lt;/div&gt;&lt;font style=&quot;font-size: 8px;&quot;&gt;формирование ответа&lt;/font&gt;" style="points=[[0.25,0,0],[0.5,0,0],[0.75,0,0],[1,0.25,0],[1,0.5,0],[1,0.75,0],[0.75,1,0],[0.5,1,0],[0.25,1,0],[0,0.75,0],[0,0.5,0],[0,0.25,0]];shape=mxgraph.bpmn.task;whiteSpace=wrap;rectStyle=rounded;size=10;html=1;container=1;expand=0;collapsible=0;taskMarker=user;" vertex="1" parent="1">
          <mxGeometry x="456" y="376.25" width="70" height="47.5" as="geometry" />
        </mxCell>
        <mxCell id="gTQbOeCpmc0xGtNuBgHF-66" value="&lt;font style=&quot;font-size: 8px;&quot;&gt;нажали&amp;nbsp;&lt;/font&gt;&lt;div&gt;&lt;font style=&quot;font-size: 8px;&quot;&gt;&quot;задать вопрос&quot;&lt;/font&gt;&lt;/div&gt;" style="text;html=1;align=center;verticalAlign=middle;whiteSpace=wrap;rounded=0;" vertex="1" parent="1">
          <mxGeometry x="120" y="232.5" width="110" height="30" as="geometry" />
        </mxCell>
        <mxCell id="gTQbOeCpmc0xGtNuBgHF-67" value="" style="shape=datastore;html=1;labelPosition=center;verticalLabelPosition=bottom;align=center;verticalAlign=top;" vertex="1" parent="1">
          <mxGeometry x="130" y="10" width="40" height="40" as="geometry" />
        </mxCell>
        <mxCell id="gTQbOeCpmc0xGtNuBgHF-72" value="&lt;div&gt;&lt;br&gt;&lt;/div&gt;&lt;div&gt;&lt;span style=&quot;font-size: 8px;&quot;&gt;ответ&lt;/span&gt;&lt;/div&gt;&lt;div&gt;&lt;span style=&quot;font-size: 8px;&quot;&gt;пользователю&lt;/span&gt;&lt;/div&gt;" style="points=[[0.25,0,0],[0.5,0,0],[0.75,0,0],[1,0.25,0],[1,0.5,0],[1,0.75,0],[0.75,1,0],[0.5,1,0],[0.25,1,0],[0,0.75,0],[0,0.5,0],[0,0.25,0]];shape=mxgraph.bpmn.task;whiteSpace=wrap;rectStyle=rounded;size=10;html=1;container=1;expand=0;collapsible=0;taskMarker=script;" vertex="1" parent="1">
          <mxGeometry x="549" y="232.5" width="66" height="50" as="geometry" />
        </mxCell>
        <mxCell id="gTQbOeCpmc0xGtNuBgHF-74" value="" style="points=[[0.25,0.25,0],[0.5,0,0],[0.75,0.25,0],[1,0.5,0],[0.75,0.75,0],[0.5,1,0],[0.25,0.75,0],[0,0.5,0]];shape=mxgraph.bpmn.gateway2;html=1;verticalLabelPosition=bottom;labelBackgroundColor=#ffffff;verticalAlign=top;align=center;perimeter=rhombusPerimeter;outlineConnect=0;outline=none;symbol=none;gwType=exclusive;" vertex="1" parent="1">
          <mxGeometry x="640" y="240" width="40" height="35" as="geometry" />
        </mxCell>
        <mxCell id="gTQbOeCpmc0xGtNuBgHF-75" value="" style="endArrow=classic;html=1;rounded=0;entryX=0;entryY=0.5;entryDx=0;entryDy=0;entryPerimeter=0;exitX=1;exitY=0.5;exitDx=0;exitDy=0;exitPerimeter=0;" edge="1" parent="1" source="gTQbOeCpmc0xGtNuBgHF-72" target="gTQbOeCpmc0xGtNuBgHF-74">
          <mxGeometry width="50" height="50" relative="1" as="geometry">
            <mxPoint x="582" y="305" as="sourcePoint" />
            <mxPoint x="430" y="290" as="targetPoint" />
          </mxGeometry>
        </mxCell>
        <mxCell id="gTQbOeCpmc0xGtNuBgHF-76" value="" style="ellipse;whiteSpace=wrap;html=1;aspect=fixed;strokeColor=#FF0000;" vertex="1" parent="1">
          <mxGeometry x="642.5" y="167.5" width="35" height="35" as="geometry" />
        </mxCell>
        <mxCell id="gTQbOeCpmc0xGtNuBgHF-78" value="&lt;font style=&quot;font-size: 8px;&quot;&gt;ответ на вопрос получен&lt;/font&gt;" style="text;html=1;align=center;verticalAlign=middle;whiteSpace=wrap;rounded=0;" vertex="1" parent="1">
          <mxGeometry x="615" y="130" width="90" height="30" as="geometry" />
        </mxCell>
        <mxCell id="gTQbOeCpmc0xGtNuBgHF-80" value="" style="endArrow=classic;html=1;rounded=0;exitX=1;exitY=0.5;exitDx=0;exitDy=0;exitPerimeter=0;entryX=0;entryY=0.5;entryDx=0;entryDy=0;entryPerimeter=0;" edge="1" parent="1" source="gTQbOeCpmc0xGtNuBgHF-74" target="gTQbOeCpmc0xGtNuBgHF-200">
          <mxGeometry width="50" height="50" relative="1" as="geometry">
            <mxPoint x="380" y="350" as="sourcePoint" />
            <mxPoint x="700" y="258" as="targetPoint" />
          </mxGeometry>
        </mxCell>
        <mxCell id="gTQbOeCpmc0xGtNuBgHF-81" value="" style="shape=datastore;html=1;labelPosition=center;verticalLabelPosition=bottom;align=center;verticalAlign=top;" vertex="1" parent="1">
          <mxGeometry x="400" y="160" width="40" height="50" as="geometry" />
        </mxCell>
        <mxCell id="gTQbOeCpmc0xGtNuBgHF-84" value="" style="endArrow=none;dashed=1;html=1;dashPattern=1 3;strokeWidth=2;rounded=0;exitX=0.5;exitY=0;exitDx=0;exitDy=0;exitPerimeter=0;entryX=0.5;entryY=1;entryDx=0;entryDy=0;" edge="1" parent="1" target="gTQbOeCpmc0xGtNuBgHF-81">
          <mxGeometry width="50" height="50" relative="1" as="geometry">
            <mxPoint x="381" y="245" as="sourcePoint" />
            <mxPoint x="440" y="250" as="targetPoint" />
            <Array as="points">
              <mxPoint x="380" y="230" />
              <mxPoint x="420" y="230" />
            </Array>
          </mxGeometry>
        </mxCell>
        <mxCell id="gTQbOeCpmc0xGtNuBgHF-85" value="" style="endArrow=none;dashed=1;html=1;dashPattern=1 3;strokeWidth=2;rounded=0;exitX=0.85;exitY=0.95;exitDx=0;exitDy=0;exitPerimeter=0;" edge="1" parent="1" source="gTQbOeCpmc0xGtNuBgHF-81">
          <mxGeometry width="50" height="50" relative="1" as="geometry">
            <mxPoint x="360" y="300" as="sourcePoint" />
            <mxPoint x="456" y="390" as="targetPoint" />
            <Array as="points">
              <mxPoint x="434" y="390" />
            </Array>
          </mxGeometry>
        </mxCell>
        <mxCell id="gTQbOeCpmc0xGtNuBgHF-87" value="&lt;div&gt;&lt;font style=&quot;font-size: 8px;&quot;&gt;&lt;br&gt;&lt;/font&gt;&lt;/div&gt;&lt;font style=&quot;font-size: 8px;&quot;&gt;формирование ответа&lt;/font&gt;" style="points=[[0.25,0,0],[0.5,0,0],[0.75,0,0],[1,0.25,0],[1,0.5,0],[1,0.75,0],[0.75,1,0],[0.5,1,0],[0.25,1,0],[0,0.75,0],[0,0.5,0],[0,0.25,0]];shape=mxgraph.bpmn.task;whiteSpace=wrap;rectStyle=rounded;size=10;html=1;container=1;expand=0;collapsible=0;taskMarker=user;" vertex="1" parent="1">
          <mxGeometry x="757" y="376.25" width="70" height="47.5" as="geometry" />
        </mxCell>
        <mxCell id="gTQbOeCpmc0xGtNuBgHF-89" value="" style="shape=datastore;html=1;labelPosition=center;verticalLabelPosition=bottom;align=center;verticalAlign=top;" vertex="1" parent="1">
          <mxGeometry x="520" y="160" width="40" height="50" as="geometry" />
        </mxCell>
        <mxCell id="gTQbOeCpmc0xGtNuBgHF-90" value="" style="endArrow=none;dashed=1;html=1;dashPattern=1 3;strokeWidth=2;rounded=0;exitX=0.5;exitY=0;exitDx=0;exitDy=0;entryX=0.5;entryY=0;entryDx=0;entryDy=0;entryPerimeter=0;" edge="1" parent="1" source="gTQbOeCpmc0xGtNuBgHF-103" target="gTQbOeCpmc0xGtNuBgHF-87">
          <mxGeometry width="50" height="50" relative="1" as="geometry">
            <mxPoint x="613" y="393.45" as="sourcePoint" />
            <mxPoint x="669" y="393.45" as="targetPoint" />
            <Array as="points">
              <mxPoint x="733" y="140" />
              <mxPoint x="790" y="140" />
            </Array>
          </mxGeometry>
        </mxCell>
        <mxCell id="gTQbOeCpmc0xGtNuBgHF-93" value="" style="endArrow=classic;html=1;rounded=0;entryX=0.5;entryY=1;entryDx=0;entryDy=0;exitX=0.5;exitY=0;exitDx=0;exitDy=0;exitPerimeter=0;" edge="1" parent="1" source="gTQbOeCpmc0xGtNuBgHF-74" target="gTQbOeCpmc0xGtNuBgHF-76">
          <mxGeometry width="50" height="50" relative="1" as="geometry">
            <mxPoint x="550" y="330" as="sourcePoint" />
            <mxPoint x="600" y="280" as="targetPoint" />
          </mxGeometry>
        </mxCell>
        <mxCell id="gTQbOeCpmc0xGtNuBgHF-95" value="" style="endArrow=classic;html=1;rounded=0;exitX=0.5;exitY=0;exitDx=0;exitDy=0;exitPerimeter=0;entryX=0;entryY=0.5;entryDx=0;entryDy=0;entryPerimeter=0;" edge="1" parent="1" source="gTQbOeCpmc0xGtNuBgHF-34" target="gTQbOeCpmc0xGtNuBgHF-55">
          <mxGeometry width="50" height="50" relative="1" as="geometry">
            <mxPoint x="470" y="290" as="sourcePoint" />
            <mxPoint x="520" y="240" as="targetPoint" />
            <Array as="points">
              <mxPoint x="283" y="130" />
            </Array>
          </mxGeometry>
        </mxCell>
        <mxCell id="gTQbOeCpmc0xGtNuBgHF-97" value="" style="endArrow=none;dashed=1;html=1;dashPattern=1 3;strokeWidth=2;rounded=0;exitX=0.5;exitY=0;exitDx=0;exitDy=0;entryX=1;entryY=0.5;entryDx=0;entryDy=0;entryPerimeter=0;" edge="1" parent="1" source="gTQbOeCpmc0xGtNuBgHF-59" target="gTQbOeCpmc0xGtNuBgHF-55">
          <mxGeometry width="50" height="50" relative="1" as="geometry">
            <mxPoint x="530" y="330" as="sourcePoint" />
            <mxPoint x="580" y="280" as="targetPoint" />
            <Array as="points">
              <mxPoint x="490" y="130" />
            </Array>
          </mxGeometry>
        </mxCell>
        <mxCell id="gTQbOeCpmc0xGtNuBgHF-98" value="" style="endArrow=none;dashed=1;html=1;dashPattern=1 3;strokeWidth=2;rounded=0;exitX=0.5;exitY=1;exitDx=0;exitDy=0;entryX=0;entryY=0.5;entryDx=0;entryDy=0;entryPerimeter=0;" edge="1" parent="1" source="gTQbOeCpmc0xGtNuBgHF-59" target="gTQbOeCpmc0xGtNuBgHF-72">
          <mxGeometry width="50" height="50" relative="1" as="geometry">
            <mxPoint x="530" y="360" as="sourcePoint" />
            <mxPoint x="580" y="310" as="targetPoint" />
            <Array as="points">
              <mxPoint x="490" y="258" />
            </Array>
          </mxGeometry>
        </mxCell>
        <mxCell id="gTQbOeCpmc0xGtNuBgHF-99" value="&lt;font style=&quot;font-size: 6px;&quot;&gt;инд. пользователя , инд.вопроса&amp;nbsp;&lt;br&gt;&lt;/font&gt;" style="text;html=1;align=center;verticalAlign=middle;whiteSpace=wrap;rounded=0;" vertex="1" parent="1">
          <mxGeometry x="429" y="100" width="82" height="30" as="geometry" />
        </mxCell>
        <mxCell id="gTQbOeCpmc0xGtNuBgHF-102" value="" style="endArrow=none;dashed=1;html=1;dashPattern=1 3;strokeWidth=2;rounded=0;entryX=0.5;entryY=1;entryDx=0;entryDy=0;exitX=1;exitY=0.5;exitDx=0;exitDy=0;exitPerimeter=0;" edge="1" parent="1" source="gTQbOeCpmc0xGtNuBgHF-64" target="gTQbOeCpmc0xGtNuBgHF-89">
          <mxGeometry width="50" height="50" relative="1" as="geometry">
            <mxPoint x="430" y="380" as="sourcePoint" />
            <mxPoint x="480" y="330" as="targetPoint" />
            <Array as="points">
              <mxPoint x="540" y="400" />
            </Array>
          </mxGeometry>
        </mxCell>
        <mxCell id="gTQbOeCpmc0xGtNuBgHF-103" value="" style="shape=datastore;html=1;labelPosition=center;verticalLabelPosition=bottom;align=center;verticalAlign=top;" vertex="1" parent="1">
          <mxGeometry x="713" y="160" width="40" height="50" as="geometry" />
        </mxCell>
        <mxCell id="gTQbOeCpmc0xGtNuBgHF-104" value="" style="endArrow=none;dashed=1;html=1;dashPattern=1 3;strokeWidth=2;rounded=0;entryX=0.5;entryY=1;entryDx=0;entryDy=0;exitX=0.5;exitY=0;exitDx=0;exitDy=0;exitPerimeter=0;" edge="1" parent="1" target="gTQbOeCpmc0xGtNuBgHF-103">
          <mxGeometry width="50" height="50" relative="1" as="geometry">
            <mxPoint x="733" y="232.5" as="sourcePoint" />
            <mxPoint x="550" y="280" as="targetPoint" />
          </mxGeometry>
        </mxCell>
        <mxCell id="gTQbOeCpmc0xGtNuBgHF-105" value="&lt;div&gt;&lt;br&gt;&lt;/div&gt;&lt;div&gt;&lt;span style=&quot;font-size: 8px;&quot;&gt;ответ&lt;/span&gt;&lt;/div&gt;&lt;div&gt;&lt;span style=&quot;font-size: 8px;&quot;&gt;пользователю&lt;/span&gt;&lt;/div&gt;" style="points=[[0.25,0,0],[0.5,0,0],[0.75,0,0],[1,0.25,0],[1,0.5,0],[1,0.75,0],[0.75,1,0],[0.5,1,0],[0.25,1,0],[0,0.75,0],[0,0.5,0],[0,0.25,0]];shape=mxgraph.bpmn.task;whiteSpace=wrap;rectStyle=rounded;size=10;html=1;container=1;expand=0;collapsible=0;taskMarker=script;" vertex="1" parent="1">
          <mxGeometry x="800" y="255" width="66" height="50" as="geometry" />
        </mxCell>
        <mxCell id="gTQbOeCpmc0xGtNuBgHF-106" value="" style="endArrow=none;dashed=1;html=1;dashPattern=1 3;strokeWidth=2;rounded=0;entryX=0.5;entryY=0;entryDx=0;entryDy=0;exitX=0.5;exitY=0;exitDx=0;exitDy=0;exitPerimeter=0;" edge="1" parent="1" source="gTQbOeCpmc0xGtNuBgHF-105" target="gTQbOeCpmc0xGtNuBgHF-89">
          <mxGeometry width="50" height="50" relative="1" as="geometry">
            <mxPoint x="500" y="330" as="sourcePoint" />
            <mxPoint x="550" y="280" as="targetPoint" />
            <Array as="points">
              <mxPoint x="830" y="120" />
              <mxPoint x="540" y="120" />
            </Array>
          </mxGeometry>
        </mxCell>
        <mxCell id="gTQbOeCpmc0xGtNuBgHF-108" value="" style="ellipse;whiteSpace=wrap;html=1;aspect=fixed;strokeColor=#FF0000;" vertex="1" parent="1">
          <mxGeometry x="864" y="167.5" width="35" height="35" as="geometry" />
        </mxCell>
        <mxCell id="gTQbOeCpmc0xGtNuBgHF-109" value="&lt;font style=&quot;font-size: 8px;&quot;&gt;ответ на вопрос получен&lt;/font&gt;" style="text;html=1;align=center;verticalAlign=middle;whiteSpace=wrap;rounded=0;" vertex="1" parent="1">
          <mxGeometry x="836.5" y="130" width="90" height="30" as="geometry" />
        </mxCell>
        <mxCell id="gTQbOeCpmc0xGtNuBgHF-110" value="" style="endArrow=classic;html=1;rounded=0;entryX=0.5;entryY=1;entryDx=0;entryDy=0;exitX=1;exitY=0.5;exitDx=0;exitDy=0;exitPerimeter=0;" edge="1" parent="1" source="gTQbOeCpmc0xGtNuBgHF-105" target="gTQbOeCpmc0xGtNuBgHF-108">
          <mxGeometry width="50" height="50" relative="1" as="geometry">
            <mxPoint x="670" y="250" as="sourcePoint" />
            <mxPoint x="670" y="213" as="targetPoint" />
            <Array as="points">
              <mxPoint x="880" y="280" />
            </Array>
          </mxGeometry>
        </mxCell>
        <mxCell id="gTQbOeCpmc0xGtNuBgHF-111" value="" style="shape=datastore;html=1;labelPosition=center;verticalLabelPosition=bottom;align=center;verticalAlign=top;" vertex="1" parent="1">
          <mxGeometry x="910" y="160" width="40" height="50" as="geometry" />
        </mxCell>
        <mxCell id="gTQbOeCpmc0xGtNuBgHF-112" value="" style="endArrow=none;dashed=1;html=1;dashPattern=1 3;strokeWidth=2;rounded=0;entryX=0.5;entryY=1;entryDx=0;entryDy=0;exitX=1;exitY=0.5;exitDx=0;exitDy=0;exitPerimeter=0;" edge="1" parent="1" source="gTQbOeCpmc0xGtNuBgHF-87" target="gTQbOeCpmc0xGtNuBgHF-111">
          <mxGeometry width="50" height="50" relative="1" as="geometry">
            <mxPoint x="590" y="380" as="sourcePoint" />
            <mxPoint x="640" y="330" as="targetPoint" />
            <Array as="points">
              <mxPoint x="930" y="400" />
            </Array>
          </mxGeometry>
        </mxCell>
        <mxCell id="gTQbOeCpmc0xGtNuBgHF-113" value="&lt;div&gt;&lt;br&gt;&lt;/div&gt;&lt;div&gt;&lt;span style=&quot;font-size: 8px;&quot;&gt;ответ&lt;/span&gt;&lt;/div&gt;&lt;div&gt;&lt;span style=&quot;font-size: 8px;&quot;&gt;пользователю&lt;/span&gt;&lt;/div&gt;" style="points=[[0.25,0,0],[0.5,0,0],[0.75,0,0],[1,0.25,0],[1,0.5,0],[1,0.75,0],[0.75,1,0],[0.5,1,0],[0.25,1,0],[0,0.75,0],[0,0.5,0],[0,0.25,0]];shape=mxgraph.bpmn.task;whiteSpace=wrap;rectStyle=rounded;size=10;html=1;container=1;expand=0;collapsible=0;taskMarker=script;" vertex="1" parent="1">
          <mxGeometry x="970" y="255" width="66" height="50" as="geometry" />
        </mxCell>
        <mxCell id="gTQbOeCpmc0xGtNuBgHF-114" value="" style="ellipse;whiteSpace=wrap;html=1;aspect=fixed;strokeColor=#FF0000;" vertex="1" parent="1">
          <mxGeometry x="1040" y="145" width="35" height="35" as="geometry" />
        </mxCell>
        <mxCell id="gTQbOeCpmc0xGtNuBgHF-115" value="&lt;font style=&quot;font-size: 8px;&quot;&gt;ответ на вопрос получен&lt;/font&gt;" style="text;html=1;align=center;verticalAlign=middle;whiteSpace=wrap;rounded=0;" vertex="1" parent="1">
          <mxGeometry x="1012.5" y="113" width="90" height="30" as="geometry" />
        </mxCell>
        <mxCell id="gTQbOeCpmc0xGtNuBgHF-116" value="" style="endArrow=none;dashed=1;html=1;dashPattern=1 3;strokeWidth=2;rounded=0;entryX=0.5;entryY=0;entryDx=0;entryDy=0;exitX=0.5;exitY=0;exitDx=0;exitDy=0;exitPerimeter=0;" edge="1" parent="1" source="gTQbOeCpmc0xGtNuBgHF-113" target="gTQbOeCpmc0xGtNuBgHF-111">
          <mxGeometry width="50" height="50" relative="1" as="geometry">
            <mxPoint x="590" y="380" as="sourcePoint" />
            <mxPoint x="640" y="330" as="targetPoint" />
            <Array as="points">
              <mxPoint x="1000" y="130" />
              <mxPoint x="930" y="130" />
            </Array>
          </mxGeometry>
        </mxCell>
        <mxCell id="gTQbOeCpmc0xGtNuBgHF-117" value="" style="endArrow=classic;html=1;rounded=0;entryX=0.5;entryY=1;entryDx=0;entryDy=0;exitX=1;exitY=0.5;exitDx=0;exitDy=0;exitPerimeter=0;" edge="1" parent="1" source="gTQbOeCpmc0xGtNuBgHF-113" target="gTQbOeCpmc0xGtNuBgHF-114">
          <mxGeometry width="50" height="50" relative="1" as="geometry">
            <mxPoint x="590" y="380" as="sourcePoint" />
            <mxPoint x="640" y="330" as="targetPoint" />
            <Array as="points">
              <mxPoint x="1060" y="280" />
            </Array>
          </mxGeometry>
        </mxCell>
        <mxCell id="gTQbOeCpmc0xGtNuBgHF-120" value="&lt;font style=&quot;font-size: 6px;&quot;&gt;инд. пользователя , инд.вопроса ,&lt;/font&gt;&lt;div&gt;&lt;font style=&quot;font-size: 6px;&quot;&gt;сам вопрос&lt;/font&gt;&lt;/div&gt;" style="text;html=1;align=center;verticalAlign=middle;whiteSpace=wrap;rounded=0;" vertex="1" parent="1">
          <mxGeometry x="817" y="355" width="82" height="30" as="geometry" />
        </mxCell>
        <mxCell id="gTQbOeCpmc0xGtNuBgHF-122" value="" style="rounded=0;whiteSpace=wrap;html=1;" vertex="1" parent="1">
          <mxGeometry x="105" y="760" width="1030" height="360" as="geometry" />
        </mxCell>
        <mxCell id="gTQbOeCpmc0xGtNuBgHF-123" value="" style="rounded=0;whiteSpace=wrap;html=1;" vertex="1" parent="1">
          <mxGeometry x="105" y="760" width="40" height="120" as="geometry" />
        </mxCell>
        <mxCell id="gTQbOeCpmc0xGtNuBgHF-124" value="" style="rounded=0;whiteSpace=wrap;html=1;" vertex="1" parent="1">
          <mxGeometry x="105" y="880" width="40" height="120" as="geometry" />
        </mxCell>
        <mxCell id="gTQbOeCpmc0xGtNuBgHF-125" value="" style="rounded=0;whiteSpace=wrap;html=1;" vertex="1" parent="1">
          <mxGeometry x="105" y="1000" width="40" height="120" as="geometry" />
        </mxCell>
        <mxCell id="gTQbOeCpmc0xGtNuBgHF-126" value="" style="rounded=0;whiteSpace=wrap;html=1;" vertex="1" parent="1">
          <mxGeometry x="145" y="760" width="990" height="120" as="geometry" />
        </mxCell>
        <mxCell id="gTQbOeCpmc0xGtNuBgHF-127" value="" style="rounded=0;whiteSpace=wrap;html=1;" vertex="1" parent="1">
          <mxGeometry x="145" y="1000" width="990" height="120" as="geometry" />
        </mxCell>
        <mxCell id="gTQbOeCpmc0xGtNuBgHF-128" value="Оператор" style="text;html=1;align=center;verticalAlign=middle;whiteSpace=wrap;rounded=0;rotation=270;" vertex="1" parent="1">
          <mxGeometry x="125" y="1045" width="60" height="30" as="geometry" />
        </mxCell>
        <mxCell id="gTQbOeCpmc0xGtNuBgHF-129" value="-" style="text;html=1;align=center;verticalAlign=middle;whiteSpace=wrap;rounded=0;rotation=270;" vertex="1" parent="1">
          <mxGeometry x="95" y="805" width="60" height="30" as="geometry" />
        </mxCell>
        <mxCell id="gTQbOeCpmc0xGtNuBgHF-130" value="-" style="text;html=1;align=center;verticalAlign=middle;whiteSpace=wrap;rounded=0;rotation=270;" vertex="1" parent="1">
          <mxGeometry x="95" y="1045" width="60" height="30" as="geometry" />
        </mxCell>
        <mxCell id="gTQbOeCpmc0xGtNuBgHF-131" value="" style="points=[[0.25,0.25,0],[0.5,0,0],[0.75,0.25,0],[1,0.5,0],[0.75,0.75,0],[0.5,1,0],[0.25,0.75,0],[0,0.5,0]];shape=mxgraph.bpmn.gateway2;html=1;verticalLabelPosition=bottom;labelBackgroundColor=#ffffff;verticalAlign=top;align=center;perimeter=rhombusPerimeter;outlineConnect=0;outline=none;symbol=none;gwType=exclusive;" vertex="1" parent="1">
          <mxGeometry x="288" y="805" width="40" height="35" as="geometry" />
        </mxCell>
        <mxCell id="gTQbOeCpmc0xGtNuBgHF-132" value="Ситема мп" style="text;html=1;align=center;verticalAlign=middle;whiteSpace=wrap;rounded=0;rotation=270;" vertex="1" parent="1">
          <mxGeometry x="115" y="805" width="80" height="30" as="geometry" />
        </mxCell>
        <mxCell id="gTQbOeCpmc0xGtNuBgHF-133" value="" style="ellipse;whiteSpace=wrap;html=1;aspect=fixed;strokeColor=#009900;" vertex="1" parent="1">
          <mxGeometry x="165" y="922.5" width="35" height="35" as="geometry" />
        </mxCell>
        <mxCell id="gTQbOeCpmc0xGtNuBgHF-134" value="Пользователь" style="text;html=1;align=center;verticalAlign=middle;whiteSpace=wrap;rounded=0;rotation=270;" vertex="1" parent="1">
          <mxGeometry x="125" y="925" width="60" height="30" as="geometry" />
        </mxCell>
        <mxCell id="gTQbOeCpmc0xGtNuBgHF-135" value="" style="endArrow=classic;html=1;rounded=0;exitX=1;exitY=0.5;exitDx=0;exitDy=0;entryX=0.5;entryY=1;entryDx=0;entryDy=0;entryPerimeter=0;exitPerimeter=0;" edge="1" parent="1" source="gTQbOeCpmc0xGtNuBgHF-204" target="gTQbOeCpmc0xGtNuBgHF-131">
          <mxGeometry width="50" height="50" relative="1" as="geometry">
            <mxPoint x="335" y="970" as="sourcePoint" />
            <mxPoint x="305" y="910" as="targetPoint" />
            <Array as="points">
              <mxPoint x="308" y="940" />
            </Array>
          </mxGeometry>
        </mxCell>
        <mxCell id="gTQbOeCpmc0xGtNuBgHF-136" value="" style="endArrow=classic;html=1;rounded=0;exitX=1;exitY=0.5;exitDx=0;exitDy=0;exitPerimeter=0;entryX=-0.011;entryY=0.459;entryDx=0;entryDy=0;entryPerimeter=0;" edge="1" parent="1" source="gTQbOeCpmc0xGtNuBgHF-131" target="gTQbOeCpmc0xGtNuBgHF-189">
          <mxGeometry width="50" height="50" relative="1" as="geometry">
            <mxPoint x="275" y="870" as="sourcePoint" />
            <mxPoint x="372.9999999999999" y="930" as="targetPoint" />
            <Array as="points">
              <mxPoint x="345" y="823" />
              <mxPoint x="345" y="930" />
            </Array>
          </mxGeometry>
        </mxCell>
        <mxCell id="gTQbOeCpmc0xGtNuBgHF-138" value="&lt;div&gt;&lt;font style=&quot;font-size: 8px;&quot;&gt;&lt;br&gt;&lt;/font&gt;&lt;/div&gt;&lt;div&gt;&lt;font style=&quot;font-size: 8px;&quot;&gt;кнопка &lt;br&gt;&quot;Вопрос 1/2/3&quot;&lt;br&gt;&lt;/font&gt;&lt;/div&gt;" style="points=[[0.25,0,0],[0.5,0,0],[0.75,0,0],[1,0.25,0],[1,0.5,0],[1,0.75,0],[0.75,1,0],[0.5,1,0],[0.25,1,0],[0,0.75,0],[0,0.5,0],[0,0.25,0]];shape=mxgraph.bpmn.task;whiteSpace=wrap;rectStyle=rounded;size=10;html=1;container=1;expand=0;collapsible=0;taskMarker=script;" vertex="1" parent="1">
          <mxGeometry x="360" y="765" width="69" height="50" as="geometry" />
        </mxCell>
        <mxCell id="gTQbOeCpmc0xGtNuBgHF-140" value="&lt;font style=&quot;font-size: 6px;&quot;&gt;инд. пользователя , инд.вопроса ,&lt;/font&gt;&lt;div&gt;&lt;font style=&quot;font-size: 6px;&quot;&gt;сам вопрос&lt;/font&gt;&lt;/div&gt;" style="text;html=1;align=center;verticalAlign=middle;whiteSpace=wrap;rounded=0;" vertex="1" parent="1">
          <mxGeometry x="489" y="1000" width="82" height="30" as="geometry" />
        </mxCell>
        <mxCell id="gTQbOeCpmc0xGtNuBgHF-141" value="&lt;br class=&quot;Apple-interchange-newline&quot;&gt;&lt;span style=&quot;font-size: 8px;&quot;&gt;формирование ответа&lt;/span&gt;" style="points=[[0.25,0,0],[0.5,0,0],[0.75,0,0],[1,0.25,0],[1,0.5,0],[1,0.75,0],[0.75,1,0],[0.5,1,0],[0.25,1,0],[0,0.75,0],[0,0.5,0],[0,0.25,0]];shape=mxgraph.bpmn.task;whiteSpace=wrap;rectStyle=rounded;size=10;html=1;container=1;expand=0;collapsible=0;taskMarker=user;" vertex="1" parent="1">
          <mxGeometry x="481" y="1036.25" width="70" height="47.5" as="geometry" />
        </mxCell>
        <mxCell id="gTQbOeCpmc0xGtNuBgHF-142" value="&lt;font style=&quot;font-size: 8px;&quot;&gt;нажали&amp;nbsp;&lt;/font&gt;&lt;div&gt;&lt;font style=&quot;font-size: 8px;&quot;&gt;&quot;задать вопрос&quot;&lt;/font&gt;&lt;/div&gt;" style="text;html=1;align=center;verticalAlign=middle;whiteSpace=wrap;rounded=0;" vertex="1" parent="1">
          <mxGeometry x="137" y="890.5" width="110" height="30" as="geometry" />
        </mxCell>
        <mxCell id="gTQbOeCpmc0xGtNuBgHF-143" value="&lt;div&gt;&lt;br&gt;&lt;/div&gt;&lt;div&gt;&lt;span style=&quot;font-size: 8px;&quot;&gt;ответ&lt;/span&gt;&lt;/div&gt;&lt;div&gt;&lt;span style=&quot;font-size: 8px;&quot;&gt;пользователю&lt;/span&gt;&lt;/div&gt;" style="points=[[0.25,0,0],[0.5,0,0],[0.75,0,0],[1,0.25,0],[1,0.5,0],[1,0.75,0],[0.75,1,0],[0.5,1,0],[0.25,1,0],[0,0.75,0],[0,0.5,0],[0,0.25,0]];shape=mxgraph.bpmn.task;whiteSpace=wrap;rectStyle=rounded;size=10;html=1;container=1;expand=0;collapsible=0;taskMarker=script;" vertex="1" parent="1">
          <mxGeometry x="574" y="892.5" width="66" height="50" as="geometry" />
        </mxCell>
        <mxCell id="gTQbOeCpmc0xGtNuBgHF-144" value="" style="points=[[0.25,0.25,0],[0.5,0,0],[0.75,0.25,0],[1,0.5,0],[0.75,0.75,0],[0.5,1,0],[0.25,0.75,0],[0,0.5,0]];shape=mxgraph.bpmn.gateway2;html=1;verticalLabelPosition=bottom;labelBackgroundColor=#ffffff;verticalAlign=top;align=center;perimeter=rhombusPerimeter;outlineConnect=0;outline=none;symbol=none;gwType=exclusive;" vertex="1" parent="1">
          <mxGeometry x="665" y="900" width="40" height="35" as="geometry" />
        </mxCell>
        <mxCell id="gTQbOeCpmc0xGtNuBgHF-145" value="" style="endArrow=classic;html=1;rounded=0;entryX=0;entryY=0.5;entryDx=0;entryDy=0;entryPerimeter=0;exitX=1;exitY=0.5;exitDx=0;exitDy=0;exitPerimeter=0;" edge="1" parent="1" source="gTQbOeCpmc0xGtNuBgHF-143" target="gTQbOeCpmc0xGtNuBgHF-144">
          <mxGeometry width="50" height="50" relative="1" as="geometry">
            <mxPoint x="607" y="965" as="sourcePoint" />
            <mxPoint x="455" y="950" as="targetPoint" />
          </mxGeometry>
        </mxCell>
        <mxCell id="gTQbOeCpmc0xGtNuBgHF-146" value="" style="ellipse;whiteSpace=wrap;html=1;aspect=fixed;strokeColor=#FF0000;" vertex="1" parent="1">
          <mxGeometry x="667.5" y="827.5" width="35" height="35" as="geometry" />
        </mxCell>
        <mxCell id="gTQbOeCpmc0xGtNuBgHF-147" value="&lt;font style=&quot;font-size: 8px;&quot;&gt;ответ на вопрос получен&lt;/font&gt;" style="text;html=1;align=center;verticalAlign=middle;whiteSpace=wrap;rounded=0;" vertex="1" parent="1">
          <mxGeometry x="640" y="790" width="90" height="30" as="geometry" />
        </mxCell>
        <mxCell id="gTQbOeCpmc0xGtNuBgHF-149" value="" style="endArrow=classic;html=1;rounded=0;entryX=0;entryY=0.554;entryDx=0;entryDy=0;entryPerimeter=0;exitX=1;exitY=0.5;exitDx=0;exitDy=0;exitPerimeter=0;" edge="1" parent="1" source="gTQbOeCpmc0xGtNuBgHF-144" target="gTQbOeCpmc0xGtNuBgHF-190">
          <mxGeometry width="50" height="50" relative="1" as="geometry">
            <mxPoint x="405" y="1010" as="sourcePoint" />
            <mxPoint x="725" y="917.5" as="targetPoint" />
          </mxGeometry>
        </mxCell>
        <mxCell id="gTQbOeCpmc0xGtNuBgHF-150" value="" style="shape=datastore;html=1;labelPosition=center;verticalLabelPosition=bottom;align=center;verticalAlign=top;" vertex="1" parent="1">
          <mxGeometry x="425" y="820" width="40" height="50" as="geometry" />
        </mxCell>
        <mxCell id="gTQbOeCpmc0xGtNuBgHF-151" value="" style="endArrow=none;dashed=1;html=1;dashPattern=1 3;strokeWidth=2;rounded=0;exitX=0.5;exitY=0;exitDx=0;exitDy=0;exitPerimeter=0;entryX=0.5;entryY=1;entryDx=0;entryDy=0;" edge="1" parent="1" target="gTQbOeCpmc0xGtNuBgHF-150">
          <mxGeometry width="50" height="50" relative="1" as="geometry">
            <mxPoint x="406" y="905" as="sourcePoint" />
            <mxPoint x="465" y="910" as="targetPoint" />
            <Array as="points">
              <mxPoint x="405" y="890" />
              <mxPoint x="445" y="890" />
            </Array>
          </mxGeometry>
        </mxCell>
        <mxCell id="gTQbOeCpmc0xGtNuBgHF-153" value="&lt;div&gt;&lt;font style=&quot;font-size: 8px;&quot;&gt;&lt;br&gt;&lt;/font&gt;&lt;/div&gt;&lt;font style=&quot;font-size: 8px;&quot;&gt;формирование ответа&lt;/font&gt;" style="points=[[0.25,0,0],[0.5,0,0],[0.75,0,0],[1,0.25,0],[1,0.5,0],[1,0.75,0],[0.75,1,0],[0.5,1,0],[0.25,1,0],[0,0.75,0],[0,0.5,0],[0,0.25,0]];shape=mxgraph.bpmn.task;whiteSpace=wrap;rectStyle=rounded;size=10;html=1;container=1;expand=0;collapsible=0;taskMarker=user;" vertex="1" parent="1">
          <mxGeometry x="725" y="1036.25" width="70" height="47.5" as="geometry" />
        </mxCell>
        <mxCell id="gTQbOeCpmc0xGtNuBgHF-156" value="" style="endArrow=classic;html=1;rounded=0;entryX=0.5;entryY=1;entryDx=0;entryDy=0;exitX=0.5;exitY=0;exitDx=0;exitDy=0;exitPerimeter=0;" edge="1" parent="1" source="gTQbOeCpmc0xGtNuBgHF-144" target="gTQbOeCpmc0xGtNuBgHF-146">
          <mxGeometry width="50" height="50" relative="1" as="geometry">
            <mxPoint x="575" y="990" as="sourcePoint" />
            <mxPoint x="625" y="940" as="targetPoint" />
          </mxGeometry>
        </mxCell>
        <mxCell id="gTQbOeCpmc0xGtNuBgHF-157" value="" style="endArrow=classic;html=1;rounded=0;exitX=0.5;exitY=0;exitDx=0;exitDy=0;exitPerimeter=0;entryX=0;entryY=0.5;entryDx=0;entryDy=0;entryPerimeter=0;" edge="1" parent="1" source="gTQbOeCpmc0xGtNuBgHF-131" target="gTQbOeCpmc0xGtNuBgHF-138">
          <mxGeometry width="50" height="50" relative="1" as="geometry">
            <mxPoint x="495" y="950" as="sourcePoint" />
            <mxPoint x="545" y="900" as="targetPoint" />
            <Array as="points">
              <mxPoint x="308" y="790" />
            </Array>
          </mxGeometry>
        </mxCell>
        <mxCell id="gTQbOeCpmc0xGtNuBgHF-158" value="" style="endArrow=none;dashed=1;html=1;dashPattern=1 3;strokeWidth=2;rounded=0;exitX=0.5;exitY=0;exitDx=0;exitDy=0;entryX=1;entryY=0.5;entryDx=0;entryDy=0;entryPerimeter=0;" edge="1" parent="1" source="gTQbOeCpmc0xGtNuBgHF-150" target="gTQbOeCpmc0xGtNuBgHF-138">
          <mxGeometry width="50" height="50" relative="1" as="geometry">
            <mxPoint x="515" y="820" as="sourcePoint" />
            <mxPoint x="605" y="940" as="targetPoint" />
            <Array as="points">
              <mxPoint x="445" y="790" />
            </Array>
          </mxGeometry>
        </mxCell>
        <mxCell id="gTQbOeCpmc0xGtNuBgHF-160" value="&lt;font style=&quot;font-size: 6px;&quot;&gt;инд. пользователя , инд.вопроса&amp;nbsp;&lt;br&gt;&lt;/font&gt;" style="text;html=1;align=center;verticalAlign=middle;whiteSpace=wrap;rounded=0;" vertex="1" parent="1">
          <mxGeometry x="438" y="785" width="82" height="30" as="geometry" />
        </mxCell>
        <mxCell id="gTQbOeCpmc0xGtNuBgHF-164" value="&lt;div&gt;&lt;br&gt;&lt;/div&gt;&lt;div&gt;&lt;span style=&quot;font-size: 8px;&quot;&gt;ответ&lt;/span&gt;&lt;/div&gt;&lt;div&gt;&lt;span style=&quot;font-size: 8px;&quot;&gt;пользователю&lt;/span&gt;&lt;/div&gt;" style="points=[[0.25,0,0],[0.5,0,0],[0.75,0,0],[1,0.25,0],[1,0.5,0],[1,0.75,0],[0.75,1,0],[0.5,1,0],[0.25,1,0],[0,0.75,0],[0,0.5,0],[0,0.25,0]];shape=mxgraph.bpmn.task;whiteSpace=wrap;rectStyle=rounded;size=10;html=1;container=1;expand=0;collapsible=0;taskMarker=script;" vertex="1" parent="1">
          <mxGeometry x="825" y="915" width="66" height="50" as="geometry" />
        </mxCell>
        <mxCell id="gTQbOeCpmc0xGtNuBgHF-165" value="" style="endArrow=none;dashed=1;html=1;dashPattern=1 3;strokeWidth=2;rounded=0;entryX=1;entryY=0.3;entryDx=0;entryDy=0;exitX=0.5;exitY=0;exitDx=0;exitDy=0;exitPerimeter=0;" edge="1" parent="1" source="gTQbOeCpmc0xGtNuBgHF-164" target="gTQbOeCpmc0xGtNuBgHF-150">
          <mxGeometry width="50" height="50" relative="1" as="geometry">
            <mxPoint x="525" y="990" as="sourcePoint" />
            <mxPoint x="575" y="940" as="targetPoint" />
            <Array as="points">
              <mxPoint x="855" y="770" />
              <mxPoint x="565" y="770" />
            </Array>
          </mxGeometry>
        </mxCell>
        <mxCell id="gTQbOeCpmc0xGtNuBgHF-166" value="" style="ellipse;whiteSpace=wrap;html=1;aspect=fixed;strokeColor=#FF0000;" vertex="1" parent="1">
          <mxGeometry x="887" y="827.5" width="35" height="35" as="geometry" />
        </mxCell>
        <mxCell id="gTQbOeCpmc0xGtNuBgHF-167" value="&lt;font style=&quot;font-size: 8px;&quot;&gt;ответ на вопрос получен&lt;/font&gt;" style="text;html=1;align=center;verticalAlign=middle;whiteSpace=wrap;rounded=0;" vertex="1" parent="1">
          <mxGeometry x="861.5" y="790" width="90" height="30" as="geometry" />
        </mxCell>
        <mxCell id="gTQbOeCpmc0xGtNuBgHF-168" value="" style="endArrow=classic;html=1;rounded=0;entryX=0.5;entryY=1;entryDx=0;entryDy=0;exitX=1;exitY=0.5;exitDx=0;exitDy=0;exitPerimeter=0;" edge="1" parent="1" source="gTQbOeCpmc0xGtNuBgHF-164" target="gTQbOeCpmc0xGtNuBgHF-166">
          <mxGeometry width="50" height="50" relative="1" as="geometry">
            <mxPoint x="695" y="910" as="sourcePoint" />
            <mxPoint x="695" y="873" as="targetPoint" />
            <Array as="points">
              <mxPoint x="905" y="940" />
            </Array>
          </mxGeometry>
        </mxCell>
        <mxCell id="gTQbOeCpmc0xGtNuBgHF-170" value="" style="endArrow=none;dashed=1;html=1;dashPattern=1 3;strokeWidth=2;rounded=0;entryX=1;entryY=0.5;entryDx=0;entryDy=0;exitX=0;exitY=0.5;exitDx=0;exitDy=0;exitPerimeter=0;" edge="1" parent="1" source="gTQbOeCpmc0xGtNuBgHF-153" target="gTQbOeCpmc0xGtNuBgHF-150">
          <mxGeometry width="50" height="50" relative="1" as="geometry">
            <mxPoint x="615" y="1040" as="sourcePoint" />
            <mxPoint x="665" y="990" as="targetPoint" />
            <Array as="points">
              <mxPoint x="630" y="960" />
              <mxPoint x="520" y="960" />
            </Array>
          </mxGeometry>
        </mxCell>
        <mxCell id="gTQbOeCpmc0xGtNuBgHF-171" value="&lt;div&gt;&lt;br&gt;&lt;/div&gt;&lt;div&gt;&lt;span style=&quot;font-size: 8px;&quot;&gt;ответ&lt;/span&gt;&lt;/div&gt;&lt;div&gt;&lt;span style=&quot;font-size: 8px;&quot;&gt;пользователю&lt;/span&gt;&lt;/div&gt;" style="points=[[0.25,0,0],[0.5,0,0],[0.75,0,0],[1,0.25,0],[1,0.5,0],[1,0.75,0],[0.75,1,0],[0.5,1,0],[0.25,1,0],[0,0.75,0],[0,0.5,0],[0,0.25,0]];shape=mxgraph.bpmn.task;whiteSpace=wrap;rectStyle=rounded;size=10;html=1;container=1;expand=0;collapsible=0;taskMarker=script;" vertex="1" parent="1">
          <mxGeometry x="995" y="915" width="66" height="50" as="geometry" />
        </mxCell>
        <mxCell id="gTQbOeCpmc0xGtNuBgHF-172" value="" style="ellipse;whiteSpace=wrap;html=1;aspect=fixed;strokeColor=#FF0000;" vertex="1" parent="1">
          <mxGeometry x="1065" y="805" width="35" height="35" as="geometry" />
        </mxCell>
        <mxCell id="gTQbOeCpmc0xGtNuBgHF-173" value="&lt;font style=&quot;font-size: 8px;&quot;&gt;ответ на вопрос получен&lt;/font&gt;" style="text;html=1;align=center;verticalAlign=middle;whiteSpace=wrap;rounded=0;" vertex="1" parent="1">
          <mxGeometry x="1037.5" y="773" width="90" height="30" as="geometry" />
        </mxCell>
        <mxCell id="gTQbOeCpmc0xGtNuBgHF-175" value="" style="endArrow=classic;html=1;rounded=0;entryX=0.5;entryY=1;entryDx=0;entryDy=0;exitX=1;exitY=0.5;exitDx=0;exitDy=0;exitPerimeter=0;" edge="1" parent="1" source="gTQbOeCpmc0xGtNuBgHF-171" target="gTQbOeCpmc0xGtNuBgHF-172">
          <mxGeometry width="50" height="50" relative="1" as="geometry">
            <mxPoint x="615" y="1040" as="sourcePoint" />
            <mxPoint x="665" y="990" as="targetPoint" />
            <Array as="points">
              <mxPoint x="1085" y="940" />
            </Array>
          </mxGeometry>
        </mxCell>
        <mxCell id="gTQbOeCpmc0xGtNuBgHF-176" value="&lt;font style=&quot;font-size: 6px;&quot;&gt;инд. пользователя , инд.вопроса ,&lt;/font&gt;&lt;div&gt;&lt;font style=&quot;font-size: 6px;&quot;&gt;сам вопрос&lt;/font&gt;&lt;/div&gt;" style="text;html=1;align=center;verticalAlign=middle;whiteSpace=wrap;rounded=0;" vertex="1" parent="1">
          <mxGeometry x="631" y="970" width="82" height="30" as="geometry" />
        </mxCell>
        <mxCell id="gTQbOeCpmc0xGtNuBgHF-177" value="" style="endArrow=classic;html=1;rounded=0;entryX=0;entryY=0.5;entryDx=0;entryDy=0;entryPerimeter=0;exitX=1;exitY=0.5;exitDx=0;exitDy=0;exitPerimeter=0;" edge="1" parent="1" target="gTQbOeCpmc0xGtNuBgHF-141">
          <mxGeometry width="50" height="50" relative="1" as="geometry">
            <mxPoint x="439" y="930" as="sourcePoint" />
            <mxPoint x="650" y="840" as="targetPoint" />
            <Array as="points">
              <mxPoint x="450" y="930" />
              <mxPoint x="450" y="1060" />
            </Array>
          </mxGeometry>
        </mxCell>
        <mxCell id="gTQbOeCpmc0xGtNuBgHF-178" value="" style="endArrow=none;dashed=1;html=1;dashPattern=1 3;strokeWidth=2;rounded=0;exitX=0.25;exitY=0;exitDx=0;exitDy=0;exitPerimeter=0;entryX=0.85;entryY=0.95;entryDx=0;entryDy=0;entryPerimeter=0;" edge="1" parent="1" source="gTQbOeCpmc0xGtNuBgHF-141" target="gTQbOeCpmc0xGtNuBgHF-150">
          <mxGeometry width="50" height="50" relative="1" as="geometry">
            <mxPoint x="610" y="860" as="sourcePoint" />
            <mxPoint x="660" y="810" as="targetPoint" />
            <Array as="points">
              <mxPoint x="499" y="980" />
              <mxPoint x="460" y="920" />
            </Array>
          </mxGeometry>
        </mxCell>
        <mxCell id="gTQbOeCpmc0xGtNuBgHF-179" value="" style="endArrow=classic;html=1;rounded=0;entryX=0;entryY=0.5;entryDx=0;entryDy=0;entryPerimeter=0;exitX=1;exitY=0.25;exitDx=0;exitDy=0;exitPerimeter=0;" edge="1" parent="1" source="gTQbOeCpmc0xGtNuBgHF-138" target="gTQbOeCpmc0xGtNuBgHF-143">
          <mxGeometry width="50" height="50" relative="1" as="geometry">
            <mxPoint x="520" y="920" as="sourcePoint" />
            <mxPoint x="570" y="870" as="targetPoint" />
            <Array as="points">
              <mxPoint x="520" y="778" />
              <mxPoint x="520" y="918" />
            </Array>
          </mxGeometry>
        </mxCell>
        <mxCell id="gTQbOeCpmc0xGtNuBgHF-180" value="" style="endArrow=classic;html=1;rounded=0;exitX=1;exitY=0.5;exitDx=0;exitDy=0;exitPerimeter=0;entryX=0;entryY=0.5;entryDx=0;entryDy=0;entryPerimeter=0;" edge="1" parent="1" source="gTQbOeCpmc0xGtNuBgHF-141" target="gTQbOeCpmc0xGtNuBgHF-164">
          <mxGeometry width="50" height="50" relative="1" as="geometry">
            <mxPoint x="650" y="960" as="sourcePoint" />
            <mxPoint x="700" y="910" as="targetPoint" />
            <Array as="points">
              <mxPoint x="670" y="1060" />
              <mxPoint x="780" y="960" />
            </Array>
          </mxGeometry>
        </mxCell>
        <mxCell id="gTQbOeCpmc0xGtNuBgHF-181" value="" style="endArrow=classic;html=1;rounded=0;entryX=0;entryY=0.5;entryDx=0;entryDy=0;entryPerimeter=0;exitX=1;exitY=0.5;exitDx=0;exitDy=0;exitPerimeter=0;" edge="1" parent="1" source="gTQbOeCpmc0xGtNuBgHF-153" target="gTQbOeCpmc0xGtNuBgHF-171">
          <mxGeometry width="50" height="50" relative="1" as="geometry">
            <mxPoint x="790" y="1000" as="sourcePoint" />
            <mxPoint x="840" y="950" as="targetPoint" />
            <Array as="points">
              <mxPoint x="880" y="1060" />
              <mxPoint x="940" y="940" />
            </Array>
          </mxGeometry>
        </mxCell>
        <mxCell id="gTQbOeCpmc0xGtNuBgHF-183" value="" style="endArrow=classic;html=1;rounded=0;entryX=0.5;entryY=0;entryDx=0;entryDy=0;entryPerimeter=0;exitX=0.456;exitY=0.981;exitDx=0;exitDy=0;exitPerimeter=0;" edge="1" parent="1" source="gTQbOeCpmc0xGtNuBgHF-190" target="gTQbOeCpmc0xGtNuBgHF-153">
          <mxGeometry width="50" height="50" relative="1" as="geometry">
            <mxPoint x="758" y="942.5" as="sourcePoint" />
            <mxPoint x="740" y="940" as="targetPoint" />
          </mxGeometry>
        </mxCell>
        <mxCell id="gTQbOeCpmc0xGtNuBgHF-186" value="" style="rounded=0;whiteSpace=wrap;html=1;" vertex="1" parent="1">
          <mxGeometry x="105" y="760" width="40" height="360" as="geometry" />
        </mxCell>
        <mxCell id="gTQbOeCpmc0xGtNuBgHF-187" value="вопрос в мп" style="text;html=1;align=center;verticalAlign=middle;whiteSpace=wrap;rounded=0;rotation=270;" vertex="1" parent="1">
          <mxGeometry x="65" y="942.5" width="110" height="30" as="geometry" />
        </mxCell>
        <mxCell id="gTQbOeCpmc0xGtNuBgHF-189" value="&lt;span style=&quot;font-size: 8px;&quot;&gt;новый вопрос&lt;/span&gt;" style="points=[[0.25,0,0],[0.5,0,0],[0.75,0,0],[1,0.25,0],[1,0.5,0],[1,0.75,0],[0.75,1,0],[0.5,1,0],[0.25,1,0],[0,0.75,0],[0,0.5,0],[0,0.25,0]];shape=mxgraph.bpmn.task;whiteSpace=wrap;rectStyle=rounded;size=10;html=1;container=1;expand=0;collapsible=0;taskMarker=user;" vertex="1" parent="1">
          <mxGeometry x="377" y="907.5" width="70" height="47.5" as="geometry" />
        </mxCell>
        <mxCell id="gTQbOeCpmc0xGtNuBgHF-190" value="&lt;font style=&quot;font-size: 8px;&quot;&gt;доп.&amp;nbsp;&lt;/font&gt;&lt;span style=&quot;font-size: 8px; background-color: initial;&quot;&gt;вопрос&lt;/span&gt;" style="points=[[0.25,0,0],[0.5,0,0],[0.75,0,0],[1,0.25,0],[1,0.5,0],[1,0.75,0],[0.75,1,0],[0.5,1,0],[0.25,1,0],[0,0.75,0],[0,0.5,0],[0,0.25,0]];shape=mxgraph.bpmn.task;whiteSpace=wrap;rectStyle=rounded;size=10;html=1;container=1;expand=0;collapsible=0;taskMarker=user;" vertex="1" parent="1">
          <mxGeometry x="726" y="890.5" width="70" height="47.5" as="geometry" />
        </mxCell>
        <mxCell id="gTQbOeCpmc0xGtNuBgHF-163" value="" style="endArrow=none;dashed=1;html=1;dashPattern=1 3;strokeWidth=2;rounded=0;entryX=1;entryY=0.3;entryDx=0;entryDy=0;" edge="1" parent="gTQbOeCpmc0xGtNuBgHF-190" target="gTQbOeCpmc0xGtNuBgHF-150">
          <mxGeometry width="50" height="50" relative="1" as="geometry">
            <mxPoint x="32" y="-0.5" as="sourcePoint" />
            <mxPoint x="-151" y="49.5" as="targetPoint" />
            <Array as="points">
              <mxPoint x="32" y="-110.5" />
              <mxPoint x="-146" y="-110.5" />
            </Array>
          </mxGeometry>
        </mxCell>
        <mxCell id="gTQbOeCpmc0xGtNuBgHF-196" value="" style="rounded=0;whiteSpace=wrap;html=1;" vertex="1" parent="1">
          <mxGeometry x="80" y="100" width="40" height="360" as="geometry" />
        </mxCell>
        <mxCell id="gTQbOeCpmc0xGtNuBgHF-197" value="вопрос в мп" style="text;html=1;align=center;verticalAlign=middle;whiteSpace=wrap;rounded=0;rotation=270;" vertex="1" parent="1">
          <mxGeometry x="45" y="255" width="110" height="30" as="geometry" />
        </mxCell>
        <mxCell id="gTQbOeCpmc0xGtNuBgHF-199" value="&lt;div style=&quot;font-size: 8px;&quot;&gt;&lt;font style=&quot;font-size: 8px;&quot;&gt;новый&amp;nbsp;&lt;/font&gt;&lt;span style=&quot;background-color: initial;&quot;&gt;вопрос&lt;/span&gt;&lt;/div&gt;" style="points=[[0.25,0,0],[0.5,0,0],[0.75,0,0],[1,0.25,0],[1,0.5,0],[1,0.75,0],[0.75,1,0],[0.5,1,0],[0.25,1,0],[0,0.75,0],[0,0.5,0],[0,0.25,0]];shape=mxgraph.bpmn.task;whiteSpace=wrap;rectStyle=rounded;size=10;html=1;container=1;expand=0;collapsible=0;taskMarker=user;" vertex="1" parent="1">
          <mxGeometry x="344" y="246.25" width="70" height="47.5" as="geometry" />
        </mxCell>
        <mxCell id="gTQbOeCpmc0xGtNuBgHF-200" value="&lt;div&gt;доп. вопрос&lt;/div&gt;" style="points=[[0.25,0,0],[0.5,0,0],[0.75,0,0],[1,0.25,0],[1,0.5,0],[1,0.75,0],[0.75,1,0],[0.5,1,0],[0.25,1,0],[0,0.75,0],[0,0.5,0],[0,0.25,0]];shape=mxgraph.bpmn.task;whiteSpace=wrap;rectStyle=rounded;size=10;html=1;container=1;expand=0;collapsible=0;taskMarker=user;" vertex="1" parent="1">
          <mxGeometry x="702.5" y="233.75" width="70" height="47.5" as="geometry" />
        </mxCell>
        <mxCell id="gTQbOeCpmc0xGtNuBgHF-201" value="&lt;div style=&quot;font-size: 11px;&quot;&gt;&lt;font style=&quot;font-size: 11px;&quot;&gt;&lt;br&gt;&lt;/font&gt;&lt;/div&gt;&lt;font style=&quot;font-size: 11px;&quot;&gt;доп.вопрос&lt;/font&gt;" style="points=[[0.25,0,0],[0.5,0,0],[0.75,0,0],[1,0.25,0],[1,0.5,0],[1,0.75,0],[0.75,1,0],[0.5,1,0],[0.25,1,0],[0,0.75,0],[0,0.5,0],[0,0.25,0]];shape=mxgraph.bpmn.task;whiteSpace=wrap;rectStyle=rounded;size=10;html=1;container=1;expand=0;collapsible=0;taskMarker=script;" vertex="1" parent="1">
          <mxGeometry x="713" y="-260" width="66" height="50" as="geometry" />
        </mxCell>
        <mxCell id="gTQbOeCpmc0xGtNuBgHF-202" value="&lt;div style=&quot;font-size: 8px;&quot;&gt;&lt;font style=&quot;font-size: 8px;&quot;&gt;&lt;br&gt;&lt;/font&gt;&lt;/div&gt;&lt;div style=&quot;font-size: 8px;&quot;&gt;&lt;font style=&quot;font-size: 8px;&quot;&gt;появление&lt;/font&gt;&lt;/div&gt;&lt;div style=&quot;font-size: 8px;&quot;&gt;&lt;font style=&quot;font-size: 8px;&quot;&gt;кнопка &lt;br&gt;&quot;Вопрос 1/2/3&quot;&lt;br&gt;&lt;/font&gt;&lt;/div&gt;&lt;div style=&quot;font-size: 8px;&quot;&gt;&lt;font style=&quot;font-size: 8px;&quot;&gt;кнопка&amp;nbsp;&lt;/font&gt;&lt;/div&gt;" style="points=[[0.25,0,0],[0.5,0,0],[0.75,0,0],[1,0.25,0],[1,0.5,0],[1,0.75,0],[0.75,1,0],[0.5,1,0],[0.25,1,0],[0,0.75,0],[0,0.5,0],[0,0.25,0]];shape=mxgraph.bpmn.task;whiteSpace=wrap;rectStyle=rounded;size=10;html=1;container=1;expand=0;collapsible=0;taskMarker=script;" vertex="1" parent="1">
          <mxGeometry x="210" y="255" width="69" height="50" as="geometry" />
        </mxCell>
        <mxCell id="gTQbOeCpmc0xGtNuBgHF-203" value="" style="endArrow=classic;html=1;rounded=0;entryX=0;entryY=0.5;entryDx=0;entryDy=0;entryPerimeter=0;exitX=1;exitY=0.5;exitDx=0;exitDy=0;" edge="1" parent="1" source="gTQbOeCpmc0xGtNuBgHF-38" target="gTQbOeCpmc0xGtNuBgHF-202">
          <mxGeometry width="50" height="50" relative="1" as="geometry">
            <mxPoint x="380" y="340" as="sourcePoint" />
            <mxPoint x="430" y="290" as="targetPoint" />
          </mxGeometry>
        </mxCell>
        <mxCell id="gTQbOeCpmc0xGtNuBgHF-204" value="&lt;div style=&quot;font-size: 7px;&quot;&gt;&lt;font style=&quot;font-size: 7px;&quot;&gt;&lt;br&gt;&lt;/font&gt;&lt;/div&gt;&lt;div style=&quot;font-size: 7px;&quot;&gt;&lt;font style=&quot;font-size: 7px;&quot;&gt;появление&lt;/font&gt;&lt;/div&gt;&lt;div style=&quot;font-size: 7px;&quot;&gt;&lt;font style=&quot;font-size: 7px;&quot;&gt;кнопки&lt;br&gt;&quot;Вопрос 1/2/3&quot;&lt;br&gt;&lt;/font&gt;&lt;/div&gt;&lt;div style=&quot;font-size: 7px;&quot;&gt;&lt;font style=&quot;font-size: 7px;&quot;&gt;и кнопки&amp;nbsp;&lt;/font&gt;&lt;/div&gt;&lt;div style=&quot;font-size: 7px;&quot;&gt;&lt;font style=&quot;font-size: 7px;&quot;&gt;&quot;новый вопрос&quot;&lt;/font&gt;&lt;/div&gt;" style="points=[[0.25,0,0],[0.5,0,0],[0.75,0,0],[1,0.25,0],[1,0.5,0],[1,0.75,0],[0.75,1,0],[0.5,1,0],[0.25,1,0],[0,0.75,0],[0,0.5,0],[0,0.25,0]];shape=mxgraph.bpmn.task;whiteSpace=wrap;rectStyle=rounded;size=10;html=1;container=1;expand=0;collapsible=0;taskMarker=script;" vertex="1" parent="1">
          <mxGeometry x="219" y="914" width="69" height="52.5" as="geometry" />
        </mxCell>
        <mxCell id="gTQbOeCpmc0xGtNuBgHF-205" value="" style="endArrow=classic;html=1;rounded=0;exitX=1;exitY=0.5;exitDx=0;exitDy=0;entryX=0;entryY=0.5;entryDx=0;entryDy=0;entryPerimeter=0;" edge="1" parent="1" source="gTQbOeCpmc0xGtNuBgHF-133" target="gTQbOeCpmc0xGtNuBgHF-204">
          <mxGeometry width="50" height="50" relative="1" as="geometry">
            <mxPoint x="420" y="960" as="sourcePoint" />
            <mxPoint x="470" y="910" as="targetPoint" />
          </mxGeometry>
        </mxCell>
        <mxCell id="gTQbOeCpmc0xGtNuBgHF-206" value="1)шлюз в начале&lt;br&gt;2)бд в конец&lt;br&gt;3)в бд пунктир только из ответов" style="text;html=1;align=center;verticalAlign=middle;whiteSpace=wrap;rounded=0;" vertex="1" parent="1">
          <mxGeometry x="303" y="1190" width="317" height="30" as="geometry" />
        </mxCell>
      </root>
    </mxGraphModel>
  </diagram>
</mxfile>
